<svg xmlns="http://www.w3.org/2000/svg" id="Layer_1" data-name="Layer 1" viewBox="0 0 171.18 80.52"><defs><style>.cls-1{fill:#00a0af;}.cls-2{fill:none;stroke:#9d8d85;stroke-width:2.27px;}.cls-3{fill:#9d8d85;}</style></defs><path class="cls-1" d="M18.5,14.34H29.24L47.87,61.8H37.33L33.25,50.92H14L9.86,61.8H0Zm5.23,9.52H23.6L16.73,43.44H30.6Z"></path><path class="cls-1" d="M88.54,13.52c14.89,0,23.25,10.07,23.25,24.42s-8.23,24.68-23.25,24.68c-15.24,0-23.26-10.13-23.26-24.68S73.44,13.52,88.54,13.52Zm0,41.62c9.72,0,13.32-8.64,13.32-17.2C101.86,29.57,98,21,88.54,21S75.21,29.57,75.21,37.94C75.21,46.5,78.81,55.14,88.54,55.14Z"></path><path class="cls-1" d="M159.6,23a24.67,24.67,0,0,0-9.66-2c-3.26,0-7.48,1.43-7.48,6.6,0,8.23,20.81,4.76,20.81,20.67,0,10.41-8.23,14.35-17.82,14.35-5.17,0-7.48-.68-12.17-1.83l.88-8.57a23,23,0,0,0,10.75,2.92c3.6,0,8.43-1.84,8.43-6.12,0-9-20.81-5.3-20.81-21,0-10.61,8.23-14.49,16.59-14.49a36,36,0,0,1,11.36,1.7Z"></path><line class="cls-2" x1="53.77" x2="53.77" y2="80.52"></line><line class="cls-2" x1="123.56" x2="123.56" y2="80.52"></line><path class="cls-3" d="M165.35,14.14H164v3.69h-1.1V14.14h-1.39v-.89h3.88Zm5.83,3.69h-1V14.14h0l-1.32,3.69h-.59l-1.32-3.69h0v3.69h-1V13.25h1.6l1,2.71,1-2.71h1.6Z"></path></svg>